<svg height="511pt" viewBox="-25 1 511 511.99996" width="511pt" xmlns="http://www.w3.org/2000/svg" xmlns:xlink="http://www.w3.org/1999/xlink"><linearGradient id="a"><stop offset="0" stop-color="#8cc63f"/><stop offset=".133" stop-color="#83c33f"/><stop offset=".354" stop-color="#69b940"/><stop offset=".635" stop-color="#40aa42"/><stop offset=".964" stop-color="#079545"/><stop offset="1" stop-color="#009245"/></linearGradient><linearGradient id="b" gradientTransform="matrix(.435412 0 0 -.435412 -25.371317 522.247744)" gradientUnits="userSpaceOnUse" x1="587.9497" x2="587.9497" xlink:href="#a" y1="1176.0948" y2="-94.7712"/><linearGradient id="c" gradientTransform="matrix(.435412 0 0 -.435412 -25.371317 522.247744)" gradientUnits="userSpaceOnUse" x1="779.4052" x2="779.4052" xlink:href="#a" y1="1176.0948" y2="-94.7712"/><linearGradient id="d" gradientTransform="matrix(.435412 0 0 -.435412 -25.371317 522.247744)" gradientUnits="userSpaceOnUse" x1="587.9516" x2="587.9516" xlink:href="#a" y1="1176.0948" y2="-94.7712"/><linearGradient id="e" gradientTransform="matrix(.435412 0 0 -.435412 -25.371317 522.247744)" gradientUnits="userSpaceOnUse" x1="1023.3654" x2="1023.3654" xlink:href="#a" y1="1176.0948" y2="-94.7712"/><linearGradient id="f" gradientTransform="matrix(.435412 0 0 -.435412 -25.371317 522.247744)" gradientUnits="userSpaceOnUse" x1="305.5021" x2="305.5021" xlink:href="#a" y1="1176.0948" y2="-94.7712"/><linearGradient id="g" gradientTransform="matrix(.435412 0 0 -.435412 -25.371317 522.247744)" gradientUnits="userSpaceOnUse" x1="123.7505" x2="123.7505" xlink:href="#a" y1="1176.0948" y2="-94.7712"/><linearGradient id="h" gradientTransform="matrix(.435412 0 0 -.435412 -25.371317 522.247744)" gradientUnits="userSpaceOnUse" x1="302.5424" x2="302.5424" xlink:href="#a" y1="1176.0948" y2="-94.7712"/><path d="m.5 418.796875c.011719 20.949219 16.976562 37.9375 37.925781 37.972656h164.585938v9.203125c0 5.085938 4.121093 9.207032 9.207031 9.207032h27.613281v18.410156c-.007812 4.855468 3.753907 8.882812 8.597657 9.207031l138.078124 9.203125h.609376c5.082031 0 9.203124-4.121094 9.203124-9.203125v-18.414063h64.4375v-18.410156h-64.4375v-36.820312h64.4375v-18.410156h-64.4375v-18.410157c0-2.546875-1.054687-4.980469-2.917968-6.71875-1.863282-1.730469-4.351563-2.628906-6.894532-2.484375l-138.078124 9.203125c-4.84375.320313-8.605469 4.351563-8.597657 9.207031v18.410157h-27.613281c-5.085938 0-9.207031 4.121093-9.207031 9.203125v9.207031h-164.585938c-10.804687-.003906-19.558593-8.761719-19.558593-19.566406 0-10.1875 7.820312-18.667969 17.976562-19.492188l169.226562-14.09375c19.039063-1.691406 33.664063-17.585937 33.761719-36.699219v-16.800781l38.867188-38.863281c46.660156-46.757812 46.660156-122.46875 0-169.226562l-41.5625-41.5625c-3.59375-3.59375-9.421875-3.59375-13.015625 0l-41.5625 41.5625c-46.660156 46.757812-46.660156 122.46875 0 169.226562l38.863281 38.863281v16.800781c-.050781 9.554688-7.363281 17.503907-16.882813 18.355469l-169.226562 14.101563c-19.625 1.742187-34.703125 18.128906-34.8125 37.832031zm377.410156 1.152344v73.007812l-82.84375-5.523437v-79.738282l82.84375-5.523437zm-119.664062-9.796875 18.410156-1.230469v77.320313l-18.410156-1.230469zm-36.824219 28.207031h18.410156v18.410156h-18.410156zm18.410156-327.574219 19.203125 19.199219-19.203125 19.203125zm25.851563 169.042969-25.851563 25.847656v-19.992187l29.523438-29.523438-13.015625-13.015625-16.507813 16.503907v-84.429688l31.898438-31.894531c33.566406 40.226562 30.941406 99.402343-6.046875 136.503906zm-70.109375-143.195313 25.851562-25.847656v66.019532l-21.109375-21.109376-13.015625 13.015626 34.125 34.125v38.402343l-53.390625-53.390625c3.9375-19.410156 13.519532-37.226562 27.539063-51.214844zm-29.382813 75.363282 55.234375 55.277344v38.402343l-25.851562-25.847656c-18.03125-18.074219-28.535157-42.316406-29.382813-67.832031zm0 0" fill="url(#b)"/><path d="m308.367188 364.9375c6.714843-3.335938 13.207031-7.097656 19.441406-11.265625l-10.246094-15.300781c-5.574219 3.730468-11.382812 7.097656-17.390625 10.082031zm0 0" fill="url(#c)"/><path d="m55.730469 208.230469c-.03125 58.425781 29.136719 113.003906 77.726562 145.441406l10.238281-15.300781c-71.871093-48-91.214843-145.175782-43.214843-217.046875 48.003906-71.867188 145.179687-91.214844 217.046875-43.210938 71.871094 48 91.21875 145.175781 43.214844 217.046875-7.3125 10.945313-15.980469 20.929688-25.792969 29.707032l12.28125 13.71875c71.996093-64.398438 78.152343-174.96875 13.757812-246.960938-64.398437-71.996094-174.964843-78.15625-246.960937-13.757812-37.09375 33.179687-58.296875 80.59375-58.296875 130.363281zm0 0" fill="url(#d)"/><path d="m414.015625 314.089844c32.089844-55.703125 37.203125-122.949219 13.898437-182.859375l-17.160156 6.699219c21.285156 54.699218 16.625 116.097656-12.675781 166.953124zm0 0" fill="url(#e)"/><path d="m19.773438 188.992188 18.339843 1.65625c7.972657-86.246094 72.253907-156.707032 157.40625-172.542969l-3.332031-18.105469c-93.273438 17.34375-163.679688 94.523438-172.414062 188.992188zm0 0" fill="url(#f)"/><path d="m19.773438 227.46875 18.339843-1.65625c-.527343-5.800781-.792969-11.710938-.792969-17.582031h-18.410156c0 6.441406.292969 12.886719.863282 19.238281zm0 0" fill="url(#g)"/><path d="m37.320312 475.179688h138.078126v18.410156h-138.078126zm0 0" fill="url(#h)"/></svg>