<svg xmlns="http://www.w3.org/2000/svg" xmlns:xlink="http://www.w3.org/1999/xlink" xmlns:fi="http://pattern.flaticon.com/" x="0" y="0" width="700" height="350" viewBox="0 0 700 350"><rect x="0px" y="0px" width="100%" height="100%" opacity="1" fill="#ffffff"/><defs><g transform="matrix(0.09765625 0 0 0.09765625 150 325)" id="L1_44"><path d="M466.049,126.574H45.951c-8.378,0-15.169,6.792-15.169,15.169v317.726  c0,28.966,23.569,52.531,52.54,52.531h345.357c28.971,0,52.54-23.565,52.54-52.531V141.743  C481.218,133.366,474.426,126.574,466.049,126.574z" fill="#00dd80"/><path d="M481.215,141.744v317.729c0,28.964-23.563,52.527-52.537,52.527H255.999V126.575h210.046  C474.429,126.575,481.215,133.361,481.215,141.744z" fill="#00aa63"/><path d="M311.906,156.913c-8.378,0-15.169-6.792-15.169-15.169V71.075c0-22.462-18.274-40.736-40.736-40.736  c-22.462,0-40.736,18.274-40.736,40.736v70.668c0,8.378-6.792,15.169-15.169,15.169c-8.378,0-15.169-6.792-15.169-15.169V71.075  C184.925,31.884,216.81,0,256,0s71.075,31.884,71.075,71.075v70.668C327.075,150.121,320.284,156.913,311.906,156.913z" fill="#00dd80"/><path d="M327.074,71.075v70.669c0,8.374-6.786,15.169-15.169,15.169c-8.374,0-15.169-6.796-15.169-15.169  V71.075c0-22.461-18.274-40.735-40.735-40.735V0.001C295.188,0.001,327.074,31.887,327.074,71.075z" fill="#00aa63"/><g><path d="M190.544,380.398l36.293-35.8c5.964-5.884,6.029-15.488,0.147-21.453   c-5.881-5.964-15.486-6.031-21.453-0.147l-12.984,12.808c8.596-46.593,65.839-66.331,101.206-33.236   c6.115,5.724,15.716,5.406,21.44-0.711c5.725-6.117,5.406-15.717-0.711-21.44c-52.77-49.382-139.026-20.334-151.823,50.112   l-5.98-6.062c-5.881-5.964-15.486-6.031-21.453-0.147c-5.964,5.884-6.029,15.488-0.147,21.453l34.01,34.478   c0.008,0.008,0.017,0.014,0.024,0.022C175.045,386.247,184.645,386.219,190.544,380.398z" fill="#a6ffb5"/><path d="M369.42,347.918l-33.909-34.376c-6.047-6.256-16.065-6.177-21.989,0.179l-35.859,35.372   c-5.964,5.884-6.029,15.488-0.147,21.453c5.883,5.965,15.487,6.03,21.453,0.147l12.922-12.747   c-8.258,44.102-59.905,64.402-95.932,37.552c-6.721-5.006-16.222-3.619-21.228,3.099c-5.006,6.717-3.619,16.221,3.098,21.228   c54.257,40.436,131.854,9.552,143.967-56.706l6.023,6.105c5.881,5.964,15.486,6.031,21.453,0.147   C375.238,363.487,375.303,353.882,369.42,347.918z" fill="#a6ffb5"/><path d="M466.049,126.574H45.951c-8.378,0-15.169,6.792-15.169,15.169v76.59h450.435v-76.59   C481.218,133.366,474.426,126.574,466.049,126.574z" fill="#a6ffb5"/></g><g><path d="M481.215,141.744v76.585H255.999v-91.755h210.046C474.429,126.575,481.215,133.361,481.215,141.744z   " fill="#76f08a"/><path d="M315.192,301.863c-5.724,6.118-15.321,6.432-21.439,0.708   c-11.144-10.426-24.463-15.614-37.752-16.353v-30.369c20.58,0.728,41.311,8.495,58.483,24.574   C320.601,286.147,320.915,295.744,315.192,301.863z" fill="#76f08a"/><path d="M369.276,369.367c-5.967,5.886-15.574,5.825-21.45-0.142l-6.027-6.108   c-8.121,44.386-45.62,72.904-85.798,74.735v-30.41c26.213-1.739,50.454-20.469,55.894-49.493l-12.924,12.742   c-5.967,5.886-15.574,5.815-21.45-0.152c-5.886-5.957-5.815-15.564,0.142-21.45l35.861-35.365   c5.926-6.361,15.948-6.442,21.986-0.182l33.909,34.374C375.302,353.884,375.241,363.491,369.276,369.367z" fill="#76f08a"/></g></g><g transform="matrix(0.38759690523147583 0 0 0.38759690523147583 62.5 150)" id="L1_45"><path d="m10.5,31.2h4.5l10.5,87.7c0.2,2.1 2,3.6 4.1,3.6h69.8c2.1,0 3.8-1.5 4.1-3.6l10.5-87.7h4.5c2.3,0 4.1-1.8 4.1-4.1s-1.8-4.1-4.1-4.1h-8.2-23.2v-12.5c0-2.3-1.8-4.1-4.1-4.1h-37c-2.3,0-4.1,1.8-4.1,4.1v12.5h-23.2-8.2c-2.3,0-4.1,1.8-4.1,4.1s1.9,4.1 4.1,4.1zm39.6-16.6h28.8v8.4h-28.8v-8.4zm55.6,16.6l-9.9,83.2h-62.6l-9.9-83.2h82.4z"/><path d="m50.9,101.9c2.3,0 4.1-1.8 4.1-4.1v-49.1c0-2.3-1.8-4.1-4.1-4.1-2.3,0-4.1,1.8-4.1,4.1v49.1c0,2.3 1.8,4.1 4.1,4.1z"/><path d="m78.1,101.9c2.3,0 4.1-1.8 4.1-4.1v-49.1c0-2.3-1.8-4.1-4.1-4.1s-4.1,1.8-4.1,4.1v49.1c0,2.3 1.9,4.1 4.1,4.1z"/></g><g transform="matrix(0.13671875 0 0 0.13671875 315 315)" id="L1_46"><path d="m191.226562 122.667969h-109.964843c-45.453125 5.644531-80.761719 44.511719-80.761719 91.46875v265.050781c0 18.097656 14.714844 32.8125 32.8125 32.8125h205.867188c18.09375 0 32.808593-14.714844 32.808593-32.8125v-265.050781c.003907-46.957031-35.304687-85.824219-80.761719-91.46875zm-80.921874 254.875h-46.472657c-5.390625 0-10.371093-2.878907-13.066406-7.542969-2.695313-4.667969-2.695313-10.421875 0-15.089844l24.746094-42.863281c4.164062-7.21875 13.398437-9.695313 20.609375-5.519531 7.222656 4.164062 9.695312 13.386718 5.523437 20.609375l-11.679687 20.230469h20.339844c8.339843 0 15.085937 6.757812 15.085937 15.085937 0 8.339844-6.75 15.089844-15.085937 15.089844zm13.96875-87.984375c-2.792969 4.855468-7.875 7.582031-13.105469 7.582031-11.464844 0-18.878907-12.492187-13.066407-22.601563l25.058594-43.65625c5.777344-10.066406 20.339844-10.09375 26.152344-.03125l25.195312 43.65625c4.164063 7.214844 1.691407 16.4375-5.519531 20.613282-7.222656 4.164062-16.449219 1.6875-20.613281-5.535156l-12.089844-20.941407zm97.453124 80.441406c-2.695312 4.664062-7.675781 7.542969-13.066406 7.542969h-49.007812c-8.328125 0-15.089844-6.75-15.089844-15.089844 0-8.328125 6.761719-15.085937 15.089844-15.085937h22.875l-13.117188-22.714844c-4.164062-7.210938-1.691406-16.445313 5.523438-20.609375 7.21875-4.164063 16.445312-1.691407 20.609375 5.519531l26.183593 45.347656c2.695313 4.667969 2.695313 10.421875 0 15.089844zm0 0"/><path d="m77.328125 92.480469c118.8125.015625 117.9375 0 117.835937 0 12.890626 0 23.378907-10.484375 23.378907-23.375v-45.730469c0-12.886719-10.488281-23.375-23.378907-23.375h-117.835937c-12.890625 0-23.378906 10.488281-23.378906 23.375v45.730469c0 12.890625 10.488281 23.375 23.378906 23.375zm0 0"/></g><g transform="matrix(0.09765625 0 0 0.09765625 237.5 150)" id="L1_47"><path d="m512 512h-448c-35.34375 0-64-28.65625-64-64v-448h512zm0 0" fill="#ecce93"/><path d="m320 0h192v512h-192zm0 0" fill="#c59969"/><path d="m416 512v-512h-96v512zm0 0" fill="#ba8a5a"/><path d="m416 400-95.199219 112h191.199219v-.097656zm0 0" fill="#916e40"/><path d="m224 160h-128c-17.679688 0-32-14.320312-32-32v-48c0-17.679688 14.320312-32 32-32h128c17.679688 0 32 14.320312 32 32v48c0 17.679688-14.320312 32-32 32zm0 0" fill="#2d2d30"/><path d="m256 80h-192c0-17.679688 14.320312-32 32-32h128c17.679688 0 32 14.320312 32 32zm0 0" fill="#57565c"/><g fill="#00ddc2"><path d="m271.089844 321.96875 7.949218 27.679688 30.753907-8.816407-23.121094-80.625-80.625 23.105469 8.816406 30.75 28.542969-8.191406-10.253906 18.785156c-12.640625 23.28125-12.097656 51.871094 1.441406 74.609375 12.160156 20.496094 32.972656 32.734375 55.644531 32.734375h13.761719v-32h-13.761719c-11.4375 0-21.695312-6.222656-28.160156-17.070312-7.789063-13.089844-8.109375-29.570313-.832031-42.945313zm0 0"/><path d="m380.992188 226.511719 10.832031 19.921875-29.25-7.839844-8.285157 30.910156 81.007813 21.710938 21.710937-81.023438-30.910156-8.289062-7.296875 27.234375-9.746093-17.921875c-11.984376-22.046875-33.328126-35.214844-57.054688-35.214844s-45.070312 13.167969-57.089844 35.214844l-11.519531 21.121094 28.097656 15.3125 11.519531-21.121094c6.417969-11.773438 16.976563-18.527344 28.992188-18.527344s22.574219 6.753906 28.992188 18.511719zm0 0"/><path d="m470.832031 324.703125-6.734375-12.351563-28.097656 15.3125 6.734375 12.335938c7.28125 13.40625 6.992187 29.839844-.796875 42.929688-6.449219 10.847656-16.707031 17.070312-28.128906 17.070312h-23.183594l20.6875-20.6875-22.625-22.625-59.3125 59.3125 59.3125 59.3125 22.625-22.625-20.6875-20.6875h23.183594c22.65625 0 43.457031-12.238281 55.648437-32.71875 13.503907-22.738281 14.03125-51.3125 1.375-74.578125zm0 0"/></g><path d="m112 208h32v32h-32zm0 0" fill="#ffffff"/><path d="m176 208h32v32h-32zm0 0" fill="#ffffff"/></g></defs><g fi:class="KUsePattern"><pattern id="pattern_L1_44" width="350" height="350" patternUnits="userSpaceOnUse"><use xlink:href="#L1_44" x="-350" y="-350"/><use xlink:href="#L1_44" x="0" y="-350"/><use xlink:href="#L1_44" x="350" y="-350"/><use xlink:href="#L1_44" x="-350" y="0"/><use xlink:href="#L1_44" x="0" y="0"/><use xlink:href="#L1_44" x="350" y="0"/><use xlink:href="#L1_44" x="-350" y="350"/><use xlink:href="#L1_44" x="0" y="350"/><use xlink:href="#L1_44" x="350" y="350"/></pattern><rect x="0" y="0" width="100%" height="100%" fill="url(#pattern_L1_44)"/></g><g fi:class="KUsePattern"><pattern id="pattern_L1_45" width="350" height="350" patternUnits="userSpaceOnUse"><use xlink:href="#L1_45" x="-350" y="-350"/><use xlink:href="#L1_45" x="0" y="-350"/><use xlink:href="#L1_45" x="350" y="-350"/><use xlink:href="#L1_45" x="-350" y="0"/><use xlink:href="#L1_45" x="0" y="0"/><use xlink:href="#L1_45" x="350" y="0"/><use xlink:href="#L1_45" x="-350" y="350"/><use xlink:href="#L1_45" x="0" y="350"/><use xlink:href="#L1_45" x="350" y="350"/></pattern><rect x="0" y="0" width="100%" height="100%" fill="url(#pattern_L1_45)"/></g><g fi:class="KUsePattern"><pattern id="pattern_L1_46" width="350" height="350" patternUnits="userSpaceOnUse"><use xlink:href="#L1_46" x="-350" y="-350"/><use xlink:href="#L1_46" x="0" y="-350"/><use xlink:href="#L1_46" x="350" y="-350"/><use xlink:href="#L1_46" x="-350" y="0"/><use xlink:href="#L1_46" x="0" y="0"/><use xlink:href="#L1_46" x="350" y="0"/><use xlink:href="#L1_46" x="-350" y="350"/><use xlink:href="#L1_46" x="0" y="350"/><use xlink:href="#L1_46" x="350" y="350"/></pattern><rect x="0" y="0" width="100%" height="100%" fill="url(#pattern_L1_46)"/></g><g fi:class="KUsePattern"><pattern id="pattern_L1_47" width="350" height="350" patternUnits="userSpaceOnUse"><use xlink:href="#L1_47" x="-350" y="-350"/><use xlink:href="#L1_47" x="0" y="-350"/><use xlink:href="#L1_47" x="350" y="-350"/><use xlink:href="#L1_47" x="-350" y="0"/><use xlink:href="#L1_47" x="0" y="0"/><use xlink:href="#L1_47" x="350" y="0"/><use xlink:href="#L1_47" x="-350" y="350"/><use xlink:href="#L1_47" x="0" y="350"/><use xlink:href="#L1_47" x="350" y="350"/></pattern><rect x="0" y="0" width="100%" height="100%" fill="url(#pattern_L1_47)"/></g></svg>